<?xml version="1.0" encoding="UTF-8" standalone="no"?><svg width="64" height="64" viewBox="0 0 64 64" version="1.1" id="svg8" xmlns:xlink="http://www.w3.org/1999/xlink" xmlns="http://www.w3.org/2000/svg" xmlns:svg="http://www.w3.org/2000/svg" xmlns:rdf="http://www.w3.org/1999/02/22-rdf-syntax-ns#" xmlns:cc="http://creativecommons.org/ns#" xmlns:dc="http://purl.org/dc/elements/1.1/"><defs id="defs2"><linearGradient id="linearGradient911"><stop style="stop-color:#76ca6a;stop-opacity:1" offset="0" id="stop907"/><stop style="stop-color:#6eb558;stop-opacity:1" offset="1" id="stop909"/></linearGradient><linearGradient id="linearGradient869"><stop style="stop-color:#55c034;stop-opacity:0.95686275" offset="0" id="stop865"/><stop style="stop-color:#1d6c1a;stop-opacity:0.95686275" offset="1" id="stop867"/></linearGradient><linearGradient xlink:href="#linearGradient869" id="linearGradient871" x1="12" y1="12" x2="52" y2="52" gradientUnits="userSpaceOnUse"/><linearGradient xlink:href="#linearGradient911" id="linearGradient913" x1="16" y1="16" x2="48" y2="48" gradientUnits="userSpaceOnUse"/></defs><metadata id="metadata5"><rdf:RDF><cc:Work rdf:about=""><dc:format>image/svg+xml</dc:format><dc:type rdf:resource="http://purl.org/dc/dcmitype/StillImage"/><dc:title/></cc:Work></rdf:RDF></metadata><g id="layer1"><path id="path863" style="fill:url(#linearGradient871);stroke-width:4;stroke-opacity:0.407738;paint-order:markers stroke fill" d="M 60,32 A 28,28 0 0 1 32,60 28,28 0 0 1 4,32 28,28 0 0 1 32,4 28,28 0 0 1 60,32 Z"/><path id="path863-7" style="fill:#aedca5;stroke-width:4;stroke-opacity:0.407738;paint-order:markers stroke fill" d="M 56,32 A 24,24 0 0 1 32,56 24,24 0 0 1 8,32 24,24 0 0 1 32,8 24,24 0 0 1 56,32 Z"/><path id="path905" style="fill:url(#linearGradient913);stroke-width:4;stroke-opacity:0.407738;paint-order:markers stroke fill" d="M 52,32 A 20,20 0 0 1 32,52 20,20 0 0 1 12,32 20,20 0 0 1 32,12 20,20 0 0 1 52,32 Z"/><path style="fill:#ffffff;fill-opacity:1;stroke:none;stroke-width:4;stroke-opacity:0.407738;paint-order:markers stroke fill" d="m 28,20 h 8 v 8 h 8 v 8 h -8 v 8 h -8 v -8 h -8 v -8 h 8 z" id="path949"/></g></svg>