<?xml version='1.0' encoding='ASCII' standalone='yes'?><svg xmlns:xlink="http://www.w3.org/1999/xlink" xmlns="http://www.w3.org/2000/svg" xmlns:svg="http://www.w3.org/2000/svg" xmlns:rdf="http://www.w3.org/1999/02/22-rdf-syntax-ns#" xmlns:cc="http://creativecommons.org/ns#" xmlns:dc="http://purl.org/dc/elements/1.1/" width="64" height="64" viewBox="0 0 64 64" version="1.1" id="svg8"><defs id="defs2"><linearGradient id="linearGradient914"><stop style="stop-color:#dee7f2;stop-opacity:1" offset="0" id="stop910"/><stop style="stop-color:#ffffff;stop-opacity:0" offset="1" id="stop912"/></linearGradient><linearGradient id="linearGradient898"><stop style="stop-color:#5172a9;stop-opacity:1" offset="0" id="stop894"/><stop style="stop-color:#7ba7dc;stop-opacity:1" offset="1" id="stop896"/></linearGradient><linearGradient id="linearGradient888"><stop style="stop-color:#5172a9;stop-opacity:1" offset="0" id="stop884"/><stop style="stop-color:#7ba7dc;stop-opacity:1" offset="1" id="stop886"/></linearGradient><linearGradient xlink:href="#linearGradient888" id="linearGradient890" x1="56" y1="52" x2="8" y2="12" gradientUnits="userSpaceOnUse"/><linearGradient xlink:href="#linearGradient898" id="linearGradient892" x1="56" y1="52" x2="8" y2="12" gradientUnits="userSpaceOnUse"/><linearGradient xlink:href="#linearGradient914" id="linearGradient916" x1="48" y1="24" x2="32" y2="44" gradientUnits="userSpaceOnUse"/></defs><metadata id="metadata5"><rdf:RDF><cc:Work rdf:about=""><dc:format>image/svg+xml</dc:format><dc:type rdf:resource="http://purl.org/dc/dcmitype/StillImage"/><dc:title/></cc:Work></rdf:RDF></metadata><g id="layer1"><path id="rect880" style="fill:#92b9e8;stroke:url(#linearGradient892);stroke-width:4;stroke-linecap:round;stroke-linejoin:round;paint-order:fill markers stroke" d="m 8,6 h 44 c 3.324,0 6,2.676 6,6 v 8 c 0,3.324 -2.676,6 -6,6 H 8 C 4.676,26 2,23.324 2,20 V 12 C 2,8.676 4.676,6 8,6 Z"/><path id="rect882" style="fill:#ffffff;stroke:url(#linearGradient890);stroke-width:8;stroke-linecap:round;stroke-linejoin:round;paint-order:markers stroke fill" d="M 4,16 H 56 V 52 H 4 Z"/><path id="rect900" style="fill:url(#linearGradient916);stroke-width:8;stroke-linecap:round;stroke-linejoin:round;paint-order:markers stroke fill" d="M 8,20 H 52 V 48 H 8 Z"/></g><svg width="64" height="64" viewBox="0 0 64 64" version="1.1" id="svg8"><defs id="defs2"><linearGradient id="linearGradientDeleteLayer911-7"><stop style="stop-color:#ff924d;stop-opacity:1" offset="0" id="stop907-5"/><stop style="stop-color:#f87600;stop-opacity:1" offset="1" id="stop909-3"/></linearGradient><linearGradient id="linearGradientDeleteLayer869-5"><stop style="stop-color:#d68653;stop-opacity:1" offset="0" id="stop865-6"/><stop style="stop-color:#bc4204;stop-opacity:1" offset="1" id="stop867-2"/></linearGradient><linearGradient xlink:href="#linearGradientDeleteLayer869-5" id="linearGradientDeleteLayer871-9" x1="12" y1="12" x2="52" y2="52" gradientUnits="userSpaceOnUse" gradientTransform="matrix(0.5,0,0,0.5,34,34)"/><linearGradient xlink:href="#linearGradientDeleteLayer911-7" id="linearGradientDeleteLayer913-1" x1="19.500006" y1="22.000006" x2="47.000008" y2="44.500008" gradientUnits="userSpaceOnUse" gradientTransform="matrix(0.39999999,0,0,0.39999999,37.199998,37.199998)"/></defs><metadata id="metadata5"><rdf:RDF><cc:Work rdf:about=""><dc:format>image/svg+xml</dc:format><dc:type rdf:resource="http://purl.org/dc/dcmitype/StillImage"/><dc:title/></cc:Work></rdf:RDF></metadata><g id="layer1"><path id="path863-3" style="fill:url(#linearGradientDeleteLayer871-9);stroke-width:2;stroke-opacity:0.407738;paint-order:markers stroke fill" d="M 64,50 A 14,14 0 0 1 50,64 14,14 0 0 1 36,50 14,14 0 0 1 50,36 14,14 0 0 1 64,50 Z"/><path id="path863-7-6" style="fill:#f5ac7b;stroke-width:1.66667;stroke-opacity:0.407738;paint-order:markers stroke fill" d="M 60,50 A 10,10 0 0 1 50,60 10,10 0 0 1 40,50 10,10 0 0 1 50,40 10,10 0 0 1 60,50 Z"/><path id="path905-0" style="fill:url(#linearGradientDeleteLayer913-1);stroke-width:1.6;stroke-opacity:0.407738;paint-order:markers stroke fill" d="m 58,50 a 8,8 0 0 1 -8,8 8,8 0 0 1 -8,-8 8,8 0 0 1 8,-8 8,8 0 0 1 8,8 z"/><path style="fill:#ffffff;fill-opacity:1;stroke:none;stroke-width:4;stroke-opacity:0.407738;paint-order:markers stroke fill" d="m 44,48 v 4 h 12 v -4 z" id="path1039"/></g></svg></svg>