<?xml version="1.0" encoding="UTF-8" standalone="no"?><svg width="64" height="64" viewBox="0 0 64 64" version="1.1" id="svg8" xmlns:xlink="http://www.w3.org/1999/xlink" xmlns="http://www.w3.org/2000/svg" xmlns:svg="http://www.w3.org/2000/svg" xmlns:rdf="http://www.w3.org/1999/02/22-rdf-syntax-ns#" xmlns:cc="http://creativecommons.org/ns#" xmlns:dc="http://purl.org/dc/elements/1.1/"><defs id="defs2"><linearGradient id="linearGradient4463"><stop style="stop-color:#ffd13f;stop-opacity:1" offset="0" id="stop4459"/><stop style="stop-color:#ffeca4;stop-opacity:1" offset="1" id="stop4461"/></linearGradient><linearGradient id="linearGradient4455"><stop style="stop-color:#c47a00;stop-opacity:0.93333334" offset="0" id="stop4451"/><stop style="stop-color:#fcbf00;stop-opacity:1" offset="1" id="stop4453"/></linearGradient><linearGradient xlink:href="#linearGradient4455" id="linearGradient4457" x1="52" y1="52" x2="12" y2="16" gradientUnits="userSpaceOnUse"/><radialGradient xlink:href="#linearGradient4463" id="radialGradient4465" cx="32" cy="34" fx="32" fy="34" r="28" gradientTransform="matrix(-1.0000001,1.9285715e-8,2.0607651e-5,-0.85714288,63.999302,63.142857)" gradientUnits="userSpaceOnUse"/></defs><metadata id="metadata5"><rdf:RDF><cc:Work rdf:about=""><dc:format>image/svg+xml</dc:format><dc:type rdf:resource="http://purl.org/dc/dcmitype/StillImage"/><dc:title/></cc:Work></rdf:RDF></metadata><g id="layer1"><path id="rect4385" style="opacity:1;fill:url(#linearGradient4457);fill-opacity:1;stroke:none;stroke-width:8;stroke-linecap:round;stroke-linejoin:round;stroke-miterlimit:4;stroke-dasharray:none;stroke-opacity:1;paint-order:markers stroke fill" d="m 20.011719,4.7578125 c -0.767927,-0.053682 -1.55963,0.1137969 -2.279297,0.5292969 l -3.464844,2 c -1.919112,1.108 -2.570891,3.5457316 -1.46289,5.4648436 L 21.607422,28 H 4 c -2.216,0 -4,1.784 -4,4 v 4 c 0,2.216 1.784,4 4,4 h 17.607422 l -8.802734,15.248047 c -1.108001,1.919112 -0.456222,4.356844 1.46289,5.464844 l 3.464844,2 c 1.919112,1.108 4.35489,0.454268 5.46289,-1.464844 L 32,45.998047 l 8.804688,15.25 c 1.107999,1.919112 3.543778,2.572844 5.46289,1.464844 l 3.464844,-2 c 1.919112,-1.108 2.57089,-3.545732 1.46289,-5.464844 L 42.392578,40 H 60 c 2.216,0 4,-1.784 4,-4 v -4 c 0,-2.216 -1.784,-4 -4,-4 H 42.392578 l 8.802734,-15.248047 c 1.108,-1.919112 0.456222,-4.3568436 -1.46289,-5.4648436 l -3.464844,-2 c -1.919112,-1.108 -4.35489,-0.4542686 -5.46289,1.4648437 L 32,22.001953 23.195312,6.7519531 C 22.502813,5.5525079 21.291597,4.8472821 20.011719,4.7578125 Z"/><path id="rect4385-9" style="fill:url(#radialGradient4465);stroke-width:8;stroke-linecap:round;stroke-linejoin:round;paint-order:markers stroke fill" d="M 19.730469,8.7519531 16.269531,10.751953 25.072266,26 a 4.0004,4.0004 0 0 1 -3.464844,6 H 4 v 4 h 17.607422 a 4.0004,4.0004 0 0 1 3.464844,6 l -8.802735,15.248047 3.460938,2 8.804687,-15.25 a 4.0004,4.0004 0 0 1 6.929688,0 l 8.804687,15.25 3.460938,-2 L 38.927734,42 a 4.0004,4.0004 0 0 1 3.464844,-6 H 60 V 32 H 42.392578 A 4.0004,4.0004 0 0 1 38.927734,26 L 47.730469,10.751953 44.269531,8.7519531 35.464844,24.001953 a 4.0004,4.0004 0 0 1 -6.929688,0 z"/></g></svg>