<?xml version='1.0' encoding='ASCII' standalone='yes'?><svg xmlns:xlink="http://www.w3.org/1999/xlink" xmlns="http://www.w3.org/2000/svg" xmlns:svg="http://www.w3.org/2000/svg" xmlns:rdf="http://www.w3.org/1999/02/22-rdf-syntax-ns#" xmlns:cc="http://creativecommons.org/ns#" xmlns:dc="http://purl.org/dc/elements/1.1/" width="64" height="64" viewBox="0 0 64 64" version="1.1" id="svg8"><defs id="defs2"><linearGradient id="linearGradient976"><stop style="stop-color:#205c1d;stop-opacity:1" offset="0" id="stop972"/><stop style="stop-color:#40b73a;stop-opacity:1" offset="1" id="stop974"/></linearGradient><linearGradient id="linearGradient930"><stop style="stop-color:#629c47;stop-opacity:1" offset="0" id="stop926"/><stop style="stop-color:#98c185;stop-opacity:1" offset="0.375" id="stop936"/><stop style="stop-color:#5da141;stop-opacity:1" offset="0.625" id="stop934"/><stop style="stop-color:#80b55e;stop-opacity:1" offset="1" id="stop928"/></linearGradient><linearGradient xlink:href="#linearGradient930" id="linearGradient932" x1="40" y1="32" x2="24" y2="32" gradientUnits="userSpaceOnUse"/><linearGradient xlink:href="#linearGradient976" id="linearGradient978" x1="56" y1="52" x2="12" y2="8" gradientUnits="userSpaceOnUse"/><linearGradient xlink:href="#linearGradient976" id="linearGradient982" gradientUnits="userSpaceOnUse" x1="76.367531" y1="-2.8284271" x2="14.142136" y2="-2.8284271"/><linearGradient xlink:href="#linearGradient976" id="linearGradient984" x1="56" y1="52" x2="12" y2="8" gradientUnits="userSpaceOnUse"/></defs><metadata id="metadata5"><rdf:RDF><cc:Work rdf:about=""><dc:format>image/svg+xml</dc:format><dc:type rdf:resource="http://purl.org/dc/dcmitype/StillImage"/><dc:title/></cc:Work></rdf:RDF></metadata><g id="layer1"><path id="path946" style="fill:none;fill-opacity:1;stroke:url(#linearGradient978);stroke-width:6;stroke-linecap:round;stroke-linejoin:round;stroke-miterlimit:4;stroke-dasharray:none;stroke-opacity:0.966228;paint-order:markers fill stroke" d="M 31.000001,1.9999997 36.000001,25 Z M 14,9.9999996 28,32 Z M 1.9999997,24 20.000001,36 Z M 39,28 62.000001,35 Z m -7,8 22,14 z m -4,8 12.000001,18 z"/><path id="path960" style="fill:none;fill-opacity:1;stroke:url(#linearGradient984);stroke-width:4;stroke-linecap:round;stroke-linejoin:round;stroke-opacity:0.996689;paint-order:markers fill stroke" d="M 46.000001,2 46,14 Z M 50,18 h 12 z"/><path id="path938" style="fill:#b0d9a9;stroke:#445026;stroke-width:3.57771;stroke-linecap:round;stroke-linejoin:round;paint-order:markers fill stroke" transform="rotate(45)" d="m 53.254833,-16 a 8,8.000001 0 0 1 -8,8.000001 8,8.000001 0 0 1 -8,-8.000001 8,8.000001 0 0 1 8,-8.000001 8,8.000001 0 0 1 8,8.000001 z"/><path id="rect901" style="fill:#b0d9a9;stroke:url(#linearGradient982);stroke-width:4;stroke-linecap:round;stroke-linejoin:round;paint-order:markers fill stroke" transform="rotate(45)" d="m 44.254833,-16 h 2 c 8.31,0 15,5.352 15,12 V 8 c 0,6.648 -6.69,12 -15,12 h -2 c -8.31,0 -15,-5.352 -15,-12 V -4 c 0,-6.648 6.69,-12 15,-12 z"/><path id="rect901-3" style="fill:url(#linearGradient932);stroke-width:4;stroke-linecap:round;stroke-linejoin:round;paint-order:markers fill stroke" transform="rotate(45,32,32)" d="m 31,20 c -6.592551,0 -11,4.035514 -11,8 v 12 c 0,3.964486 4.407449,8 11,8 h 2 c 6.592551,0 11,-4.035514 11,-8 V 28 c 0,-3.964486 -4.407449,-8 -11,-8 z"/><path style="fill:#57a64e;fill-opacity:1;stroke:#379532;stroke-width:4;stroke-linecap:round;stroke-linejoin:round;stroke-opacity:1;paint-order:markers fill stroke" d="M 20.686292,43.313708 40.485283,23.514719" id="path903"/></g><svg width="64" height="64" viewBox="0 0 64 64" version="1.1" id="svg8"><defs id="defs2"><linearGradient id="linearGradient895"><stop style="stop-color:#1e7b03;stop-opacity:1" offset="0" id="stop891"/><stop style="stop-color:#659e35;stop-opacity:1" offset="1" id="stop893"/></linearGradient><linearGradient xlink:href="#linearGradient895" id="linearGradient897" x1="48" y1="60" x2="32" y2="36" gradientUnits="userSpaceOnUse"/></defs><metadata id="metadata5"><rdf:RDF><cc:Work rdf:about=""><dc:format>image/svg+xml</dc:format><dc:type rdf:resource="http://purl.org/dc/dcmitype/StillImage"/><dc:title/></cc:Work></rdf:RDF></metadata><g id="layer1"><path style="fill:#bed8a9;fill-opacity:1;stroke:url(#linearGradient897);stroke-width:4;stroke-linecap:round;stroke-linejoin:round;stroke-miterlimit:4;stroke-dasharray:none;stroke-opacity:1;paint-order:markers fill stroke" d="M 61,46 45,62 H 42 V 54 H 26 V 38 h 16 v -8 h 3 z" id="path889"/><path id="path889-7" style="fill:#80b361;stroke-width:4;stroke-linecap:round;stroke-linejoin:round;paint-order:markers fill stroke" d="M 46,36.65625 V 38 a 4.0004,4.0004 0 0 1 -4,4 H 30 v 8 h 12 a 4.0004,4.0004 0 0 1 4,4 v 1.34375 L 55.34375,46 Z"/></g></svg></svg>