<?xml version="1.0" encoding="UTF-8" standalone="no"?><svg width="64" height="64" viewBox="0 0 64 64" version="1.1" id="svg8" xmlns:xlink="http://www.w3.org/1999/xlink" xmlns="http://www.w3.org/2000/svg" xmlns:svg="http://www.w3.org/2000/svg" xmlns:rdf="http://www.w3.org/1999/02/22-rdf-syntax-ns#" xmlns:cc="http://creativecommons.org/ns#" xmlns:dc="http://purl.org/dc/elements/1.1/"><defs id="defs2"><linearGradient id="linearGradient1169"><stop style="stop-color:#989898;stop-opacity:1" offset="0" id="stop1165"/><stop style="stop-color:#555555;stop-opacity:0.99961197" offset="1" id="stop1167"/></linearGradient><linearGradient id="linearGradient1027"><stop style="stop-color:#6590c6;stop-opacity:1" offset="0" id="stop1023"/><stop style="stop-color:#5987c1;stop-opacity:1" offset="1" id="stop1025"/></linearGradient><linearGradient id="linearGradient1015"><stop style="stop-color:#93b4e3;stop-opacity:1" offset="0" id="stop1011"/><stop style="stop-color:#355c9c;stop-opacity:1" offset="1" id="stop1013"/></linearGradient><linearGradient xlink:href="#linearGradient1015" id="linearGradient1017" x1="12" y1="28" x2="32" y2="56" gradientUnits="userSpaceOnUse"/><linearGradient xlink:href="#linearGradient1027" id="linearGradient1029" x1="16" y1="36" x2="28" y2="48" gradientUnits="userSpaceOnUse"/><linearGradient xlink:href="#linearGradient1015" id="linearGradient1069" gradientUnits="userSpaceOnUse" x1="32" y1="56" x2="12" y2="28" gradientTransform="rotate(180,34,30)"/><linearGradient xlink:href="#linearGradient1027" id="linearGradient1071" gradientUnits="userSpaceOnUse" x1="28" y1="48" x2="16" y2="36" gradientTransform="rotate(180,34,30)"/><linearGradient xlink:href="#linearGradient1169" id="linearGradient1171" x1="20" y1="24" x2="40" y2="44" gradientUnits="userSpaceOnUse"/></defs><metadata id="metadata5"><rdf:RDF><cc:Work rdf:about=""><dc:format>image/svg+xml</dc:format><dc:type rdf:resource="http://purl.org/dc/dcmitype/StillImage"/><dc:title/></cc:Work></rdf:RDF></metadata><g id="layer1"><path style="fill:#a0a0a0;fill-opacity:1;stroke:url(#linearGradient1171);stroke-width:4;stroke-linecap:round;stroke-linejoin:round;stroke-opacity:1;paint-order:markers fill stroke" d="M 32,48 42,38 36,32 26,42 22,38 32,28 26,22 16,32 Z" id="path1163"/><path style="fill:#6f97c9;fill-opacity:1;stroke:url(#linearGradient1017);stroke-width:4;stroke-linecap:round;stroke-linejoin:round;stroke-opacity:1;paint-order:markers fill stroke" d="m 2,54 8,8 8,-8 h 12 l 8,-8 -20,-20 -8,8 v 12 z" id="path1009"/><path style="fill:url(#linearGradient1029);fill-opacity:1;stroke:none;stroke-width:4;stroke-linecap:round;stroke-linejoin:round;stroke-opacity:1;paint-order:markers fill stroke" d="m 18,34 12,12 -3,3 H 15 V 37 Z" id="path1021"/><path style="fill:#6f97c9;fill-opacity:1;stroke:url(#linearGradient1069);stroke-width:4;stroke-linecap:round;stroke-linejoin:round;stroke-opacity:1;paint-order:markers fill stroke" d="M 62,10 54,2 50,6 H 38 l -8,8 20,20 8,-8 V 14 Z" id="path1009-2"/><path style="fill:url(#linearGradient1071);fill-opacity:1;stroke:none;stroke-width:4;stroke-linecap:round;stroke-linejoin:round;stroke-opacity:1;paint-order:markers fill stroke" d="M 50,26 38,14 41,11 h 12 v 12 z" id="path1021-9"/></g></svg>