<?xml version="1.0" encoding="UTF-8" standalone="no"?><svg width="64" height="64" viewBox="0 0 64 64" version="1.1" id="svg8" xmlns:xlink="http://www.w3.org/1999/xlink" xmlns="http://www.w3.org/2000/svg" xmlns:svg="http://www.w3.org/2000/svg" xmlns:rdf="http://www.w3.org/1999/02/22-rdf-syntax-ns#" xmlns:cc="http://creativecommons.org/ns#" xmlns:dc="http://purl.org/dc/elements/1.1/"><defs id="defs2"><linearGradient id="linearGradient2508"><stop style="stop-color:#999999;stop-opacity:1" offset="0" id="stop2504"/><stop style="stop-color:#acacac;stop-opacity:1" offset="1" id="stop2506"/></linearGradient><linearGradient id="linearGradient2500"><stop style="stop-color:#767676;stop-opacity:1" offset="0" id="stop2496"/><stop style="stop-color:#8b8b8b;stop-opacity:1" offset="1" id="stop2498"/></linearGradient><linearGradient id="linearGradient2492"><stop style="stop-color:#525252;stop-opacity:1" offset="0" id="stop2488"/><stop style="stop-color:#918f8d;stop-opacity:1" offset="1" id="stop2490"/></linearGradient><linearGradient id="linearGradient2484"><stop style="stop-color:#793e25;stop-opacity:1" offset="0" id="stop2480"/><stop style="stop-color:#b5732e;stop-opacity:1" offset="1" id="stop2482"/></linearGradient><linearGradient xlink:href="#linearGradient2484" id="linearGradient2486" x1="44" y1="44" x2="20" y2="12" gradientUnits="userSpaceOnUse"/><linearGradient xlink:href="#linearGradient2492" id="linearGradient2494" x1="44" y1="56" x2="24" y2="28" gradientUnits="userSpaceOnUse"/><linearGradient xlink:href="#linearGradient2500" id="linearGradient2502" x1="32" y1="36" x2="32" y2="60" gradientUnits="userSpaceOnUse"/><linearGradient xlink:href="#linearGradient2508" id="linearGradient2510" x1="28" y1="40" x2="28" y2="56" gradientUnits="userSpaceOnUse"/></defs><metadata id="metadata5"><rdf:RDF><cc:Work rdf:about=""><dc:format>image/svg+xml</dc:format><dc:type rdf:resource="http://purl.org/dc/dcmitype/StillImage"/><dc:title/></cc:Work></rdf:RDF></metadata><g id="layer1"><path style="opacity:1;fill:#f2f2f2;fill-opacity:1;stroke:url(#linearGradient2494);stroke-width:4;stroke-linecap:round;stroke-linejoin:round;stroke-miterlimit:4;stroke-dasharray:none;stroke-opacity:1;paint-order:markers fill stroke" d="M 14,58 H 50 V 26 L 32,8 14,26 Z" id="path2474"/><path id="rect2476" style="opacity:1;fill:url(#linearGradient2510);stroke:url(#linearGradient2502);stroke-width:4;stroke-linecap:round;stroke-linejoin:round;paint-order:markers fill stroke" d="M 26,38 H 38 V 58 H 26 Z"/><path style="opacity:1;fill:#d1a96e;fill-opacity:1;stroke:url(#linearGradient2486);stroke-width:4;stroke-linecap:round;stroke-linejoin:round;stroke-miterlimit:4;stroke-dasharray:none;stroke-opacity:1;paint-order:markers fill stroke" d="M 28,6 4,30 10,36 28,18 h 8 L 54,36 60,30 36,6 Z" id="path2478"/><path style="opacity:1;fill:#7dbf72;fill-opacity:1;stroke:#499241;stroke-width:4;stroke-linecap:round;stroke-linejoin:round;stroke-miterlimit:4;stroke-dasharray:none;stroke-opacity:1;paint-order:markers fill stroke" d="m 50,58 h 8 c 3,0 6,-6 -2,-5 -0.893712,-1.225332 -2,-3 -6,-3 -5,1 -4,7 0,8 z" id="path2706"/><path style="fill:#7dbf72;fill-opacity:1;stroke:#499241;stroke-width:4;stroke-linecap:round;stroke-linejoin:round;stroke-miterlimit:4;stroke-dasharray:none;stroke-opacity:1;paint-order:markers fill stroke" d="M 14,58 H 6 c -3,0 -6,-6 2,-5 0.893712,-1.225332 1.9999998,-3 6,-3 4.999999,1 3.999999,7 0,8 z" id="path2706-5"/></g></svg>