<?xml version="1.0" encoding="UTF-8" standalone="no"?><svg width="64" height="64" viewBox="0 0 64 64" version="1.1" id="svg8" xmlns:xlink="http://www.w3.org/1999/xlink" xmlns="http://www.w3.org/2000/svg" xmlns:svg="http://www.w3.org/2000/svg" xmlns:rdf="http://www.w3.org/1999/02/22-rdf-syntax-ns#" xmlns:cc="http://creativecommons.org/ns#" xmlns:dc="http://purl.org/dc/elements/1.1/"><defs id="defs2"><linearGradient id="linearGradient1078"><stop style="stop-color:#efc932;stop-opacity:1" offset="0" id="stop1074"/><stop style="stop-color:#fbef85;stop-opacity:0" offset="1" id="stop1076"/></linearGradient><linearGradient id="linearGradient1068"><stop style="stop-color:#fbef85;stop-opacity:1" offset="0" id="stop1064"/><stop style="stop-color:#fcf5ce;stop-opacity:1" offset="1" id="stop1066"/></linearGradient><linearGradient id="linearGradient1058"><stop style="stop-color:#d67c29;stop-opacity:1" offset="0" id="stop1054"/><stop style="stop-color:#e3b044;stop-opacity:1" offset="1" id="stop1056"/></linearGradient><linearGradient xlink:href="#linearGradient1058" id="linearGradient1060" x1="60" y1="36" x2="8" y2="20" gradientUnits="userSpaceOnUse"/><linearGradient xlink:href="#linearGradient1068" id="linearGradient1070" x1="52" y1="36" x2="28" y2="12" gradientUnits="userSpaceOnUse"/><linearGradient xlink:href="#linearGradient1078" id="linearGradient886" gradientUnits="userSpaceOnUse" x1="48" y1="36" x2="28" y2="-8"/></defs><metadata id="metadata5"><rdf:RDF><cc:Work rdf:about=""><dc:format>image/svg+xml</dc:format><dc:type rdf:resource="http://purl.org/dc/dcmitype/StillImage"/><dc:title/></cc:Work></rdf:RDF></metadata><g id="layer1"><path style="fill:url(#linearGradient1070);fill-opacity:1;stroke:url(#linearGradient1060);stroke-width:4;stroke-linecap:round;stroke-linejoin:round;stroke-miterlimit:4;stroke-dasharray:none;stroke-opacity:1;paint-order:markers fill stroke" d="m 38,2 h 4 l 20,20 v 4 L 46,42 H 42 L 38,38 14,62 H 6 L 2,58 V 46 l 4,-4 h 4 v -4 l 4,-4 h 6 L 22.74927,31.25073 26,28 v -2 l -4,-4 v -4 z" id="path1052"/><path id="path1052-3" style="fill:url(#linearGradient886);stroke-width:4;stroke-linecap:round;stroke-linejoin:round;paint-order:markers fill stroke" d="m 40,8 -12,12 2,2 a 5.6574198,5.6574198 0 0 1 1.65625,4 v 2 A 5.6574198,5.6574198 0 0 1 30,32 L 26.75,35.25 24,38 a 5.6574198,5.6574198 0 0 1 -4,1.65625 h -3.65625 l -0.6875,0.6875 V 42 A 5.6574198,5.6574198 0 0 1 10,47.65625 H 8.34375 l -0.6875,0.6875 v 7.3125 l 0.6875,0.6875 h 3.3125 L 34,34 a 5.6574198,5.6574198 0 0 1 8,0 l 2,2 12,-12 z"/><path style="fill:#379437;fill-opacity:1;stroke:#d67c29;stroke-width:4;stroke-linecap:round;stroke-linejoin:round;stroke-miterlimit:4;stroke-dasharray:none;stroke-opacity:1;paint-order:markers fill stroke" d="m 44,14 4,4" id="path1062"/></g></svg>