<?xml version="1.0" encoding="UTF-8" standalone="no"?><svg width="64" height="64" viewBox="0 0 64 64" version="1.1" id="svg8" xmlns:xlink="http://www.w3.org/1999/xlink" xmlns="http://www.w3.org/2000/svg" xmlns:svg="http://www.w3.org/2000/svg" xmlns:rdf="http://www.w3.org/1999/02/22-rdf-syntax-ns#" xmlns:cc="http://creativecommons.org/ns#" xmlns:dc="http://purl.org/dc/elements/1.1/"><defs id="defs2"><linearGradient id="linearGradient1059"><stop style="stop-color:#4a4a4a;stop-opacity:1" offset="0" id="stop1055"/><stop style="stop-color:#858585;stop-opacity:1" offset="1" id="stop1057"/></linearGradient><linearGradient id="linearGradient1021"><stop style="stop-color:#9d9d9d;stop-opacity:1" offset="0" id="stop1017"/><stop style="stop-color:#ebebeb;stop-opacity:1" offset="1" id="stop1019"/></linearGradient><linearGradient id="linearGradient1013"><stop style="stop-color:#4c4c4c;stop-opacity:1" offset="0" id="stop1009"/><stop style="stop-color:#868686;stop-opacity:1" offset="1" id="stop1011"/></linearGradient><linearGradient id="linearGradient939"><stop style="stop-color:#e8e8e8;stop-opacity:1" offset="0" id="stop935"/><stop style="stop-color:#979797;stop-opacity:1" offset="1" id="stop937"/></linearGradient><linearGradient id="linearGradient923"><stop style="stop-color:#4a4a4a;stop-opacity:1" offset="0" id="stop919"/><stop style="stop-color:#858585;stop-opacity:0.99855131" offset="1" id="stop921"/></linearGradient><linearGradient xlink:href="#linearGradient1059" id="linearGradient925" x1="50" y1="43" x2="34" y2="17" gradientUnits="userSpaceOnUse" gradientTransform="translate(4)"/><linearGradient xlink:href="#linearGradient939" id="linearGradient941" x1="36" y1="21" x2="50" y2="38" gradientUnits="userSpaceOnUse" gradientTransform="translate(4)"/><linearGradient xlink:href="#linearGradient923" id="linearGradient981" gradientUnits="userSpaceOnUse" gradientTransform="translate(-24)" x1="50" y1="43" x2="34" y2="17"/><linearGradient xlink:href="#linearGradient939" id="linearGradient983" gradientUnits="userSpaceOnUse" gradientTransform="translate(-24)" x1="36" y1="21" x2="50" y2="38"/><linearGradient xlink:href="#linearGradient1013" id="linearGradient1015" x1="42" y1="36" x2="22" y2="24" gradientUnits="userSpaceOnUse"/><linearGradient xlink:href="#linearGradient1021" id="linearGradient1023" x1="39" y1="32" x2="25" y2="28" gradientUnits="userSpaceOnUse"/></defs><metadata id="metadata5"><rdf:RDF><cc:Work rdf:about=""><dc:format>image/svg+xml</dc:format><dc:type rdf:resource="http://purl.org/dc/dcmitype/StillImage"/><dc:title/></cc:Work></rdf:RDF></metadata><g id="layer1"><path id="rect857-7" style="opacity:1;fill:none;stroke:url(#linearGradient925);stroke-width:12;stroke-linecap:round;stroke-linejoin:round;stroke-opacity:0.981698;paint-order:markers fill stroke" d="m 44,22 h 4 c 3.324,0 6,2.676 6,6 v 4 c 0,3.324 -2.676,6 -6,6 h -4 c -3.324,0 -6,-2.676 -6,-6 v -4 c 0,-3.324 2.676,-6 6,-6 z"/><path id="rect857" style="fill:none;stroke:url(#linearGradient941);stroke-width:4;stroke-linecap:round;stroke-linejoin:round;paint-order:markers fill stroke" d="m 44,22 h 4 c 3.324,0 6,2.676 6,6 v 4 c 0,3.324 -2.676,6 -6,6 h -4 c -3.324,0 -6,-2.676 -6,-6 v -4 c 0,-3.324 2.676,-6 6,-6 z"/><path id="rect857-7-2" style="fill:none;stroke:url(#linearGradient981);stroke-width:12;stroke-linecap:round;stroke-linejoin:round;stroke-opacity:0.981698;paint-order:markers fill stroke" d="m 16,22 h 4 c 3.324,0 6,2.676 6,6 v 4 c 0,3.324 -2.676,6 -6,6 h -4 c -3.324,0 -6,-2.676 -6,-6 v -4 c 0,-3.324 2.676,-6 6,-6 z"/><path id="rect857-9" style="fill:none;stroke:url(#linearGradient983);stroke-width:4;stroke-linecap:round;stroke-linejoin:round;paint-order:markers fill stroke" d="m 16,22 h 4 c 3.324,0 6,2.676 6,6 v 4 c 0,3.324 -2.676,6 -6,6 h -4 c -3.324,0 -6,-2.676 -6,-6 v -4 c 0,-3.324 2.676,-6 6,-6 z"/><path style="opacity:1;mix-blend-mode:normal;fill:none;stroke:url(#linearGradient1015);stroke-width:12;stroke-linecap:round;stroke-linejoin:round;stroke-miterlimit:4;stroke-dasharray:none;stroke-opacity:0.980392;paint-order:markers fill stroke" d="M 26,30 H 38" id="path987-1"/><path style="fill:none;stroke:url(#linearGradient1023);stroke-width:4;stroke-linecap:round;stroke-linejoin:round;stroke-miterlimit:4;stroke-dasharray:none;stroke-opacity:1;paint-order:markers fill stroke" d="M 26,30 H 38" id="path987"/></g></svg>