<?xml version="1.0" encoding="UTF-8" standalone="no"?><svg width="64" height="64" viewBox="0 0 64 64" version="1.1" id="svg8" xmlns:xlink="http://www.w3.org/1999/xlink" xmlns="http://www.w3.org/2000/svg" xmlns:svg="http://www.w3.org/2000/svg" xmlns:rdf="http://www.w3.org/1999/02/22-rdf-syntax-ns#" xmlns:cc="http://creativecommons.org/ns#" xmlns:dc="http://purl.org/dc/elements/1.1/"><defs id="defs2"><linearGradient id="linearGradient1176"><stop style="stop-color:#ababab;stop-opacity:1" offset="0" id="stop1170"/><stop style="stop-color:#cccccc;stop-opacity:1" offset="1" id="stop1174"/></linearGradient><linearGradient id="linearGradient1156"><stop style="stop-color:#393939;stop-opacity:1" offset="0" id="stop1152"/><stop style="stop-color:#939393;stop-opacity:1" offset="1" id="stop1154"/></linearGradient><linearGradient id="linearGradient1039"><stop style="stop-color:#f8d96a;stop-opacity:1" offset="0" id="stop1035"/><stop style="stop-color:#ffeeaa;stop-opacity:1" offset="0.5" id="stop1043"/><stop style="stop-color:#eeba3c;stop-opacity:1" offset="1" id="stop1037"/></linearGradient><linearGradient xlink:href="#linearGradient1039" id="linearGradient1041" x1="12" y1="44" x2="52" y2="44" gradientUnits="userSpaceOnUse"/><radialGradient xlink:href="#linearGradient1156" id="radialGradient1158" cx="32" cy="27.714287" fx="32" fy="27.714287" r="24" gradientTransform="matrix(-7.7663828e-6,-0.91666668,1,0,4.2859616,51.333334)" gradientUnits="userSpaceOnUse"/><linearGradient xlink:href="#linearGradient1176" id="linearGradient1168" x1="40" y1="32" x2="20" y2="4" gradientUnits="userSpaceOnUse"/></defs><metadata id="metadata5"><rdf:RDF><cc:Work rdf:about=""><dc:format>image/svg+xml</dc:format><dc:type rdf:resource="http://purl.org/dc/dcmitype/StillImage"/><dc:title/></cc:Work></rdf:RDF></metadata><g id="layer1"><path id="rect1009" style="fill:#fff8e0;stroke:#d58d24;stroke-width:4;stroke-linejoin:bevel;paint-order:fill markers stroke" d="m 8,26 h 48 c 1.108,0 2,0.892 2,2 v 32 c 0,1.108 -0.892,2 -2,2 H 8 C 6.892,62 6,61.108 6,60 V 28 c 0,-1.108 0.892,-2 2,-2 z"/><path id="rect1025" style="fill:url(#linearGradient1041);stroke-width:4;stroke-linejoin:bevel;paint-order:fill markers stroke" d="M 12,32 H 52 V 56 H 12 Z"/><path style="fill:none;fill-opacity:1;stroke:#cf7004;stroke-width:4;stroke-linecap:round;stroke-linejoin:bevel;stroke-miterlimit:4;stroke-dasharray:none;stroke-opacity:0.438548;paint-order:fill markers stroke" d="m 18,38 h 4" id="path1063"/><path style="fill:none;fill-opacity:1;stroke:#cf7004;stroke-width:4;stroke-linecap:round;stroke-linejoin:bevel;stroke-miterlimit:4;stroke-dasharray:none;stroke-opacity:0.438548;paint-order:fill markers stroke" d="m 18,46 h 4" id="path1063-2"/><path style="fill:none;fill-opacity:1;stroke:#cf7004;stroke-width:4;stroke-linecap:round;stroke-linejoin:bevel;stroke-miterlimit:4;stroke-dasharray:none;stroke-opacity:0.438548;paint-order:fill markers stroke" d="m 42,38 h 4" id="path1063-7"/><path style="fill:none;fill-opacity:1;stroke:#cf7004;stroke-width:4;stroke-linecap:round;stroke-linejoin:bevel;stroke-miterlimit:4;stroke-dasharray:none;stroke-opacity:0.438548;paint-order:fill markers stroke" d="m 42,46 h 4" id="path1063-0"/><path style="fill:none;fill-opacity:1;stroke:#cf7004;stroke-width:4;stroke-linecap:round;stroke-linejoin:bevel;stroke-miterlimit:4;stroke-dasharray:none;stroke-opacity:0.438548;paint-order:fill markers stroke" d="M 18,54 H 46" id="path1063-9"/><path id="rect1112" style="fill:#cf7004;fill-opacity:0.653185;stroke-width:4;stroke-linecap:round;stroke-linejoin:round;stroke-opacity:0.301855;paint-order:fill markers stroke" d="m 30,36 h 4 c 1.108,0 2,0.892 2,2 v 8 c 0,1.108 -0.892,2 -2,2 h -4 c -1.108,0 -2,-0.892 -2,-2 v -8 c 0,-1.108 0.892,-2 2,-2 z"/><path style="fill:none;fill-opacity:0.301961;stroke:#000000;stroke-width:4;stroke-linecap:round;stroke-linejoin:round;stroke-miterlimit:4;stroke-dasharray:none;stroke-opacity:0.243429;paint-order:fill markers stroke" d="M 34,46 V 42" id="path1114"/><path style="color:#000000;font-style:normal;font-variant:normal;font-weight:normal;font-stretch:normal;font-size:medium;line-height:normal;font-family:sans-serif;font-variant-ligatures:normal;font-variant-position:normal;font-variant-caps:normal;font-variant-numeric:normal;font-variant-alternates:normal;font-variant-east-asian:normal;font-feature-settings:normal;font-variation-settings:normal;text-indent:0;text-align:start;text-decoration:none;text-decoration-line:none;text-decoration-style:solid;text-decoration-color:#000000;letter-spacing:normal;word-spacing:normal;text-transform:none;writing-mode:lr-tb;direction:ltr;text-orientation:mixed;dominant-baseline:auto;baseline-shift:baseline;text-anchor:start;white-space:normal;shape-padding:0;shape-margin:0;inline-size:0;clip-rule:nonzero;display:inline;overflow:visible;visibility:visible;opacity:1;isolation:auto;mix-blend-mode:normal;color-interpolation:sRGB;color-interpolation-filters:linearRGB;solid-color:#000000;solid-opacity:1;vector-effect:none;fill:url(#linearGradient1168);fill-opacity:1;fill-rule:nonzero;stroke:url(#radialGradient1158);stroke-width:4;stroke-linecap:round;stroke-linejoin:round;stroke-miterlimit:4;stroke-dasharray:none;stroke-dashoffset:0;stroke-opacity:1;paint-order:fill markers stroke;color-rendering:auto;image-rendering:auto;shape-rendering:auto;text-rendering:auto;enable-background:accumulate;stop-color:#000000;stop-opacity:1" d="M 32,2 C 24.047619,2 18.183788,5.0455798 14.697266,9.1660156 11.210743,13.286451 10,18.111111 10,22 a 4,4 0 0 0 4,4 4,4 0 0 0 4,-4 c 0,-2.111111 0.789257,-5.286451 2.802734,-7.666016 C 22.816212,11.95442 25.952381,10 32,10 c 6.047619,0 9.183788,1.95442 11.197266,4.333984 C 45.210743,16.713549 46,19.888889 46,22 a 4,4 0 0 0 4,4 4,4 0 0 0 4,-4 C 54,18.111111 52.789257,13.286451 49.302734,9.1660156 45.816212,5.0455798 39.952381,2 32,2 Z" id="path1138"/></g></svg>