<?xml version='1.0' encoding='ASCII' standalone='yes'?><svg xmlns:xlink="http://www.w3.org/1999/xlink" xmlns="http://www.w3.org/2000/svg" xmlns:svg="http://www.w3.org/2000/svg" xmlns:rdf="http://www.w3.org/1999/02/22-rdf-syntax-ns#" xmlns:cc="http://creativecommons.org/ns#" xmlns:dc="http://purl.org/dc/elements/1.1/" width="64" height="64" viewBox="0 0 64 64" version="1.1" id="svg8"><defs id="defs2"><linearGradient id="linearGradient914"><stop style="stop-color:#e9e9e9;stop-opacity:1" offset="0" id="stop910"/><stop style="stop-color:#fcfcfc;stop-opacity:1" offset="1" id="stop912"/></linearGradient><linearGradient id="linearGradient874"><stop style="stop-color:#000000;stop-opacity:0.21176471" offset="0" id="stop870"/><stop style="stop-color:#949494;stop-opacity:0.56862748" offset="1" id="stop872"/></linearGradient><linearGradient xlink:href="#linearGradient874" id="linearGradient905" gradientUnits="userSpaceOnUse" x1="8" y1="60" x2="48" y2="8"/><linearGradient xlink:href="#linearGradient914" id="linearGradient916" x1="44" y1="16" x2="20" y2="48" gradientUnits="userSpaceOnUse"/></defs><metadata id="metadata5"><rdf:RDF><cc:Work rdf:about=""><dc:format>image/svg+xml</dc:format><dc:type rdf:resource="http://purl.org/dc/dcmitype/StillImage"/><dc:title/></cc:Work></rdf:RDF></metadata><g id="layer1"><path style="fill:none;stroke:url(#linearGradient905);stroke-width:12;stroke-linecap:round;stroke-linejoin:round;stroke-miterlimit:4;stroke-dasharray:none;stroke-opacity:1;paint-order:markers fill stroke" d="M 10,6 V 58 H 54 V 18 L 48,12 42,6 Z" id="path868-7"/><path style="fill:#e9e9e9;fill-opacity:1;stroke:none;stroke-width:12;stroke-linecap:round;stroke-linejoin:round;stroke-miterlimit:4;stroke-dasharray:none;stroke-opacity:1;paint-order:markers fill stroke" d="m 43,4 13,13 v 1 H 42 V 4 Z" id="path908"/><path style="fill:url(#linearGradient916);fill-opacity:1;stroke:#fcfcfc;stroke-width:4;stroke-linecap:round;stroke-linejoin:round;stroke-opacity:1;paint-order:markers fill stroke" d="M 10,6 V 58 H 54 V 18 H 42 V 6 Z" id="path868"/></g><svg width="64" height="64" viewBox="0 0 64 64" version="1.1" id="svg8"><defs id="defs2"><linearGradient id="linearGradientEditLayer983"><stop style="stop-color:#eeb579;stop-opacity:1" offset="0" id="stop979"/><stop style="stop-color:#edb273;stop-opacity:0.09353011" offset="1" id="stop981"/></linearGradient><linearGradient id="linearGradientEditLayer947"><stop style="stop-color:#d98f3b;stop-opacity:1" offset="0" id="stop943"/><stop style="stop-color:#e4ba2f;stop-opacity:1" offset="1" id="stop945"/></linearGradient><linearGradient id="linearGradientEditLayer909"><stop style="stop-color:#492d0e;stop-opacity:1" offset="0" id="stop905"/><stop style="stop-color:#492d0e;stop-opacity:0" offset="1" id="stop907"/></linearGradient><linearGradient id="linearGradientEditLayer2044"><stop style="stop-color:#f9e966;stop-opacity:1" offset="0" id="stop2040"/><stop style="stop-color:#fcf4b3;stop-opacity:1" offset="1" id="stop2042"/></linearGradient><linearGradient id="linearGradientEditLayer2024"><stop style="stop-color:#f4cea5;stop-opacity:1" offset="0" id="stop2020"/><stop style="stop-color:#edb070;stop-opacity:1" offset="0.5" id="stop2028"/><stop style="stop-color:#f5d3ae;stop-opacity:1" offset="1" id="stop2022"/></linearGradient><linearGradient id="linearGradientEditLayer2016"><stop style="stop-color:#deaa87;stop-opacity:1" offset="0" id="stop2012"/><stop style="stop-color:#decd87;stop-opacity:1" offset="1" id="stop2014"/></linearGradient><linearGradient id="linearGradientEditLayer2006"><stop style="stop-color:#1a1a1a;stop-opacity:1" offset="0" id="stop2002"/><stop style="stop-color:#666666;stop-opacity:1" offset="1" id="stop2004"/></linearGradient><linearGradient xlink:href="#linearGradientEditLayer2006" id="linearGradientEditLayer2008" x1="12" y1="55" x2="8" y2="51" gradientUnits="userSpaceOnUse" gradientTransform="matrix(0.88434685,0,0,0.88434685,12.462565,10.939242)"/><linearGradient xlink:href="#linearGradientEditLayer2016" id="linearGradientEditLayer2018" x1="22" y1="52" x2="12" y2="42" gradientUnits="userSpaceOnUse" gradientTransform="matrix(0.88434685,0,0,0.88434685,12.462565,10.939242)"/><linearGradient xlink:href="#linearGradientEditLayer2024" id="linearGradientEditLayer2026" x1="51" y1="23" x2="41" y2="13" gradientUnits="userSpaceOnUse" gradientTransform="matrix(0.88434685,0,0,0.88434685,12.462565,10.939242)"/><linearGradient xlink:href="#linearGradientEditLayer2044" id="linearGradientEditLayer2046" x1="35.324074" y1="38.675926" x2="25.324074" y2="28.675926" gradientUnits="userSpaceOnUse" gradientTransform="matrix(0.88434685,0,0,0.88434685,12.462565,10.939242)"/><linearGradient xlink:href="#linearGradientEditLayer909" id="linearGradientEditLayer911" x1="-1" y1="34" x2="20" y2="14" gradientUnits="userSpaceOnUse" gradientTransform="matrix(0.88434685,0,0,0.88434685,13.346912,37.469647)"/><linearGradient xlink:href="#linearGradientEditLayer947" id="linearGradientEditLayer940" gradientUnits="userSpaceOnUse" gradientTransform="matrix(0.88434685,0,0,0.88434685,13.346912,37.469647)" x1="32" y1="15" x2="22" y2="-1"/><linearGradient xlink:href="#linearGradientEditLayer983" id="linearGradientEditLayer976" gradientUnits="userSpaceOnUse" gradientTransform="matrix(0.88434685,0,0,0.88434685,13.346912,37.469647)" x1="53" y1="-19" x2="38" y2="-5"/></defs><metadata id="metadata5"><rdf:RDF><cc:Work rdf:about=""><dc:format>image/svg+xml</dc:format><dc:type rdf:resource="http://purl.org/dc/dcmitype/StillImage"/><dc:title/></cc:Work></rdf:RDF></metadata><g id="layer1"><path id="path1965" style="fill:url(#linearGradientEditLayer2026);fill-opacity:1;stroke:none;stroke-width:7.07477;stroke-linecap:round;stroke-linejoin:round;stroke-opacity:1;paint-order:markers stroke fill" d="m 52.094086,19.537442 c -0.312613,-0.0018 -0.555964,0.08109 -0.720259,0.245268 L 23.959074,47.197463 19.53734,60.462665 32.802543,56.040931 60.217295,28.626179 c 0.825713,-0.824458 -0.485172,-3.473297 -2.927672,-5.915797 -1.891588,-1.891424 -3.979959,-3.166804 -5.195537,-3.17294 z"/><path id="path1967" style="fill:#f5d3ae;stroke-width:7.07477;stroke-linecap:round;stroke-linejoin:round;paint-order:markers stroke fill" transform="rotate(45)" d="m 62.821823,-22.338293 a 6.2532763,2.1123807 0 0 1 -6.253277,2.112381 6.2532763,2.1123807 0 0 1 -6.253276,-2.112381 6.2532763,2.1123807 0 0 1 6.253276,-2.112381 6.2532763,2.1123807 0 0 1 6.253277,2.112381 z"/><path style="fill:url(#linearGradientEditLayer2018);fill-opacity:1;stroke:none;stroke-width:7.07477;stroke-linecap:round;stroke-linejoin:round;paint-order:markers stroke fill" d="M 19.53734,60.462665 32.802543,56.040931 23.959074,47.197463 Z" id="path2010"/><path style="fill:url(#linearGradientEditLayer2046);fill-opacity:1;stroke:none;stroke-width:7.07477;stroke-linecap:round;stroke-linejoin:round;paint-order:markers stroke fill" d="m 46.98966,24.166877 1.731126,3.574955 3.537388,3.537387 3.537387,1.768694 -22.993018,22.993018 -3.537387,-1.768694 -3.537388,-3.537387 -1.768694,-3.537387 z" id="path1990"/><path style="fill:url(#linearGradientEditLayer2008);fill-opacity:1;stroke:none;stroke-width:7.07477;stroke-linecap:round;stroke-linejoin:round;paint-order:markers stroke fill" d="m 19.53734,60.462665 5.306081,-1.768693 -3.537387,-3.537388 z" id="path1992"/><path id="path890-6" style="color:#000000;font-style:normal;font-variant:normal;font-weight:normal;font-stretch:normal;font-size:medium;line-height:normal;font-family:sans-serif;font-variant-ligatures:normal;font-variant-position:normal;font-variant-caps:normal;font-variant-numeric:normal;font-variant-alternates:normal;font-variant-east-asian:normal;font-feature-settings:normal;font-variation-settings:normal;text-indent:0;text-align:start;text-decoration:none;text-decoration-line:none;text-decoration-style:solid;text-decoration-color:#000000;letter-spacing:normal;word-spacing:normal;text-transform:none;writing-mode:lr-tb;direction:ltr;text-orientation:mixed;dominant-baseline:auto;baseline-shift:baseline;text-anchor:start;white-space:normal;shape-padding:0;shape-margin:0;inline-size:0;clip-rule:nonzero;display:inline;overflow:visible;visibility:visible;isolation:auto;mix-blend-mode:normal;color-interpolation:sRGB;color-interpolation-filters:linearRGB;solid-color:#000000;solid-opacity:1;vector-effect:none;fill:url(#linearGradientEditLayer940);fill-opacity:1;fill-rule:nonzero;stroke:none;stroke-width:0.884347;stroke-linecap:round;stroke-linejoin:round;stroke-miterlimit:4;stroke-dasharray:none;stroke-dashoffset:0;stroke-opacity:1;paint-order:markers stroke fill;color-rendering:auto;image-rendering:auto;shape-rendering:auto;text-rendering:auto;enable-background:accumulate;stop-color:#000000" d="m 52.111358,16.000055 c -0.94794,-0.0048 -2.260881,0.302872 -3.238575,1.279885 a 3.5377411,3.5377411 0 0 0 0,0.0018 L 21.458031,44.696493 a 3.5377411,3.5377411 0 0 0 -0.854984,1.381792 l -4.421734,13.265202 a 3.5377411,3.5377411 0 0 0 4.475279,4.475279 L 33.921794,59.397 a 3.5377411,3.5377411 0 0 0 1.381792,-0.854984 l 27.413025,-27.413025 0.0018,-0.0017 c 1.206085,-1.205716 1.36347,-2.795534 1.248793,-3.822363 -0.114735,-1.027359 -0.431042,-1.819642 -0.816984,-2.599496 -0.771925,-1.559706 -1.90987,-3.046438 -3.359482,-4.496049 -1.124952,-1.124855 -2.301203,-2.074935 -3.508024,-2.811947 -1.205952,-0.736481 -2.335512,-1.387158 -4.167829,-1.397337 z m -0.01727,3.537387 c 1.215578,0.0061 3.303949,1.281516 5.195537,3.17294 2.442499,2.4425 3.753384,5.091339 2.927671,5.915797 L 32.802543,56.040931 19.53734,60.462665 23.959074,47.197463 51.373827,19.78271 c 0.164295,-0.16418 0.407646,-0.247048 0.720261,-0.245268 z"/><path style="fill:#f5dc60;fill-opacity:1;stroke:none;stroke-width:7.07477;stroke-linecap:round;stroke-linejoin:round;stroke-opacity:1;paint-order:markers stroke fill" d="M 29.265156,54.272237 52.258174,31.279219 48.720786,27.741832 25.727768,50.73485 Z" id="path2030"/><path id="path890" style="color:#000000;font-style:normal;font-variant:normal;font-weight:normal;font-stretch:normal;font-size:medium;line-height:normal;font-family:sans-serif;font-variant-ligatures:normal;font-variant-position:normal;font-variant-caps:normal;font-variant-numeric:normal;font-variant-alternates:normal;font-variant-east-asian:normal;font-feature-settings:normal;font-variation-settings:normal;text-indent:0;text-align:start;text-decoration:none;text-decoration-line:none;text-decoration-style:solid;text-decoration-color:#000000;letter-spacing:normal;word-spacing:normal;text-transform:none;writing-mode:lr-tb;direction:ltr;text-orientation:mixed;dominant-baseline:auto;baseline-shift:baseline;text-anchor:start;white-space:normal;shape-padding:0;shape-margin:0;inline-size:0;clip-rule:nonzero;display:inline;overflow:visible;visibility:visible;isolation:auto;mix-blend-mode:normal;color-interpolation:sRGB;color-interpolation-filters:linearRGB;solid-color:#000000;solid-opacity:1;vector-effect:none;fill:url(#linearGradientEditLayer911);fill-opacity:1;fill-rule:nonzero;stroke:none;stroke-width:0.884347;stroke-linecap:round;stroke-linejoin:round;stroke-miterlimit:4;stroke-dasharray:none;stroke-dashoffset:0;stroke-opacity:1;paint-order:markers stroke fill;color-rendering:auto;image-rendering:auto;shape-rendering:auto;text-rendering:auto;enable-background:accumulate;stop-color:#000000" d="m 52.111358,16.000055 c -0.94794,-0.0048 -2.260881,0.302872 -3.238575,1.279885 a 3.5377411,3.5377411 0 0 0 0,0.0018 L 21.458031,44.696493 a 3.5377411,3.5377411 0 0 0 -0.854984,1.381792 l -4.421734,13.265202 a 3.5377411,3.5377411 0 0 0 4.475279,4.475279 L 33.921794,59.397 a 3.5377411,3.5377411 0 0 0 1.381792,-0.854984 l 27.413025,-27.413025 0.0018,-0.0017 c 1.206085,-1.205716 1.36347,-2.795534 1.248793,-3.822363 -0.114735,-1.027359 -0.431042,-1.819642 -0.816984,-2.599496 -0.771925,-1.559706 -1.90987,-3.046438 -3.359482,-4.496049 -1.124952,-1.124855 -2.301203,-2.074935 -3.508024,-2.811947 -1.205952,-0.736481 -2.335512,-1.387158 -4.167829,-1.397337 z m -0.01727,3.537387 c 1.215578,0.0061 3.303949,1.281516 5.195537,3.17294 2.442499,2.4425 3.753384,5.091339 2.927671,5.915797 L 32.802543,56.040931 19.53734,60.462665 23.959074,47.197463 51.373827,19.78271 c 0.164295,-0.16418 0.407646,-0.247048 0.720261,-0.245268 z"/><path style="fill:#ffffff;fill-opacity:0.45341;stroke:none;stroke-width:3.53739;stroke-linecap:round;stroke-linejoin:miter;stroke-miterlimit:4;stroke-dasharray:none;stroke-opacity:0.324309;paint-order:markers stroke fill" d="m 23.959074,47.197463 2.653041,-2.653041 1.768694,3.537387 3.537387,3.537388 3.537387,1.768693 -2.65304,2.653041 -3.537387,-1.768694 -3.537388,-3.537387 z" id="path987"/><path style="fill:#ffffff;fill-opacity:0.449089;stroke:none;stroke-width:3.53739;stroke-linecap:round;stroke-linejoin:miter;stroke-miterlimit:4;stroke-dasharray:none;stroke-opacity:0.324309;paint-order:markers stroke fill" d="m 44.299052,26.857485 2.65304,-2.653041 1.768694,3.537388 3.537388,3.537387 3.537387,1.768694 -2.653041,2.653041 -3.537387,-1.768694 -3.537387,-3.537388 z" id="path987-2"/><path id="path890-6-1" style="color:#000000;font-style:normal;font-variant:normal;font-weight:normal;font-stretch:normal;font-size:medium;line-height:normal;font-family:sans-serif;font-variant-ligatures:normal;font-variant-position:normal;font-variant-caps:normal;font-variant-numeric:normal;font-variant-alternates:normal;font-variant-east-asian:normal;font-feature-settings:normal;font-variation-settings:normal;text-indent:0;text-align:start;text-decoration:none;text-decoration-line:none;text-decoration-style:solid;text-decoration-color:#000000;letter-spacing:normal;word-spacing:normal;text-transform:none;writing-mode:lr-tb;direction:ltr;text-orientation:mixed;dominant-baseline:auto;baseline-shift:baseline;text-anchor:start;white-space:normal;shape-padding:0;shape-margin:0;inline-size:0;clip-rule:nonzero;display:inline;overflow:visible;visibility:visible;isolation:auto;mix-blend-mode:normal;color-interpolation:sRGB;color-interpolation-filters:linearRGB;solid-color:#000000;solid-opacity:1;vector-effect:none;fill:url(#linearGradientEditLayer976);fill-opacity:1;fill-rule:nonzero;stroke:none;stroke-width:0.884347;stroke-linecap:round;stroke-linejoin:round;stroke-miterlimit:4;stroke-dasharray:none;stroke-dashoffset:0;stroke-opacity:1;paint-order:markers stroke fill;color-rendering:auto;image-rendering:auto;shape-rendering:auto;text-rendering:auto;enable-background:accumulate;stop-color:#000000" d="m 52.111358,16.000055 c -0.94794,-0.0048 -2.260881,0.302872 -3.238575,1.279885 a 3.5377411,3.5377411 0 0 0 0,0.0018 L 21.458031,44.696493 a 3.5377411,3.5377411 0 0 0 -0.854984,1.381792 l -4.421734,13.265202 a 3.5377411,3.5377411 0 0 0 4.475279,4.475279 L 33.921794,59.397 a 3.5377411,3.5377411 0 0 0 1.381792,-0.854984 l 27.413025,-27.413025 0.0018,-0.0017 c 1.206085,-1.205716 1.36347,-2.795534 1.248793,-3.822363 -0.114735,-1.027359 -0.431042,-1.819642 -0.816984,-2.599496 -0.771925,-1.559706 -1.90987,-3.046438 -3.359482,-4.496049 -1.124952,-1.124855 -2.301203,-2.074935 -3.508024,-2.811947 -1.205952,-0.736481 -2.335512,-1.387158 -4.167829,-1.397337 z m -0.01727,3.537387 c 1.215578,0.0061 3.303949,1.281516 5.195537,3.17294 2.442499,2.4425 3.753384,5.091339 2.927671,5.915797 L 32.802543,56.040931 19.53734,60.462665 23.959074,47.197463 51.373827,19.78271 c 0.164295,-0.16418 0.407646,-0.247048 0.720261,-0.245268 z"/></g></svg></svg>