<?xml version="1.0" encoding="UTF-8" standalone="no"?><svg width="64" height="64" viewBox="0 0 64 64" version="1.1" id="svg8" xmlns:xlink="http://www.w3.org/1999/xlink" xmlns="http://www.w3.org/2000/svg" xmlns:svg="http://www.w3.org/2000/svg" xmlns:rdf="http://www.w3.org/1999/02/22-rdf-syntax-ns#" xmlns:cc="http://creativecommons.org/ns#" xmlns:dc="http://purl.org/dc/elements/1.1/"><defs id="defs2"><linearGradient id="linearGradient1574"><stop style="stop-color:#ffffff;stop-opacity:0.9287433" offset="0" id="stop1570"/><stop style="stop-color:#ffffff;stop-opacity:0" offset="1" id="stop1572"/></linearGradient><linearGradient id="linearGradient1546"><stop style="stop-color:#ffffff;stop-opacity:0.56640625" offset="0" id="stop1542"/><stop style="stop-color:#ffffff;stop-opacity:0" offset="1" id="stop1544"/></linearGradient><linearGradient id="linearGradient1536"><stop style="stop-color:#ffffff;stop-opacity:0.6868791" offset="0" id="stop1532"/><stop style="stop-color:#ffffff;stop-opacity:0" offset="1" id="stop1534"/></linearGradient><linearGradient id="linearGradient1465"><stop style="stop-color:#0945b1;stop-opacity:1" offset="0" id="stop1461"/><stop style="stop-color:#8db1eb;stop-opacity:1" offset="1" id="stop1463"/></linearGradient><linearGradient xlink:href="#linearGradient1465" id="linearGradient1467" x1="56" y1="52" x2="16" y2="12" gradientUnits="userSpaceOnUse"/><radialGradient xlink:href="#linearGradient1536" id="radialGradient1538" cx="27.559103" cy="39.430725" fx="27.559103" fy="39.430725" r="12" gradientTransform="matrix(-3.6057194e-7,3.6666669,-1.4166664,5.0720768e-6,81.860197,-66.050254)" gradientUnits="userSpaceOnUse"/><radialGradient xlink:href="#linearGradient1546" id="radialGradient1548" cx="24" cy="8" fx="24" fy="8" r="8" gradientUnits="userSpaceOnUse" gradientTransform="matrix(3.6450911e-6,3,-3.0000001,-6.3703494e-8,47.999913,-64)"/><radialGradient xlink:href="#linearGradient1574" id="radialGradient1568" cx="26.249023" cy="50.371994" fx="26.249023" fy="50.371994" r="20.128419" gradientTransform="matrix(-1.3860419e-7,-2.285326,1.3910681,5.0596807e-6,-38.070867,115.98732)" gradientUnits="userSpaceOnUse"/></defs><metadata id="metadata5"><rdf:RDF><cc:Work rdf:about=""><dc:format>image/svg+xml</dc:format><dc:type rdf:resource="http://purl.org/dc/dcmitype/StillImage"/><dc:title/></cc:Work></rdf:RDF></metadata><g id="layer1"><path id="path1424" style="opacity:1;fill:#9ebbea;fill-opacity:1;stroke:url(#linearGradient1467);stroke-width:8;stroke-linecap:round;stroke-linejoin:round;stroke-miterlimit:4;stroke-dasharray:none;stroke-opacity:1;paint-order:markers stroke fill" d="M 32,4 A 12,12 0 0 0 20,16 12,12 0 0 0 32,28 12,12 0 0 0 44,16 12,12 0 0 0 32,4 Z m 0,24 C 9,28 12,54 12,54 c 2,2 4,2 6,0 0,0 -0.483808,-10.289409 4.371094,-16.462891 C 20.004325,43.651324 20,52.179081 20,58 28.174072,60.762033 36.161961,60.56987 44,58 44,52.313875 43.9952,44.04415 41.789062,37.964844 46.475315,44.453263 46,55 46,55 c 2,2 4,2 6,0 0,0 3,-27 -20,-27 z"/><path id="path1540" style="opacity:1;fill:url(#radialGradient1548);stroke-width:4;stroke-linecap:round;stroke-linejoin:round;stroke-opacity:0.686879;paint-order:markers stroke fill" d="M 44,16 A 12,12 0 0 1 32,28 12,12 0 0 1 20,16 12,12 0 0 1 32,4 12,12 0 0 1 44,16 Z"/><path id="path1469" style="opacity:1;fill:none;stroke:#f9f9f9;stroke-width:4;stroke-linecap:round;stroke-linejoin:round;stroke-opacity:0.139616;paint-order:markers stroke fill" d="M 42,16 A 10,10 0 0 1 32,26 10,10 0 0 1 22,16 10,10 0 0 1 32,6 10,10 0 0 1 42,16 Z"/><path id="path1428-1-8" style="fill:url(#radialGradient1568);fill-opacity:1;stroke:none;stroke-width:8;stroke-linecap:round;stroke-linejoin:round;stroke-miterlimit:4;stroke-dasharray:none;stroke-opacity:1;paint-order:markers stroke fill" d="M 32,28 C 9,28 12,54 12,54 c 2,2 4,2 6,0 0,0 -0.483808,-10.289409 4.371094,-16.462891 C 24.070296,33.147459 26.985103,30 32,30 c 5.17665,0 8.11535,3.352674 9.78906,7.964844 C 46.47531,44.453263 46,55 46,55 c 2,2 4,2 6,0 0,0 3,-27 -20,-27 z"/><path style="fill:url(#radialGradient1538);fill-opacity:1;stroke:none;stroke-width:8;stroke-linecap:round;stroke-linejoin:round;stroke-miterlimit:4;stroke-dasharray:none;stroke-opacity:1;paint-order:markers stroke fill" d="m 20,58 c 8.17407,2.762033 16.16196,2.56987 24,0 C 44,48 44,30 32,30 20,30 20,48 20,58 Z" id="path1426-6-9"/></g></svg>