<?xml version="1.0" encoding="UTF-8" standalone="no"?><svg width="64" height="64" viewBox="0 0 64 64" version="1.1" id="svg8" xmlns:xlink="http://www.w3.org/1999/xlink" xmlns="http://www.w3.org/2000/svg" xmlns:svg="http://www.w3.org/2000/svg" xmlns:rdf="http://www.w3.org/1999/02/22-rdf-syntax-ns#" xmlns:cc="http://creativecommons.org/ns#" xmlns:dc="http://purl.org/dc/elements/1.1/"><defs id="defs2"><linearGradient id="linearGradient866"><stop style="stop-color:#a2d4d4;stop-opacity:1" offset="0" id="stop862"/><stop style="stop-color:#56aae0;stop-opacity:1" offset="1" id="stop864"/></linearGradient><linearGradient id="linearGradient1153"><stop style="stop-color:#5bafdc;stop-opacity:1" offset="0" id="stop1149"/><stop style="stop-color:#b5ded6;stop-opacity:1" offset="1" id="stop1151"/></linearGradient><linearGradient id="linearGradient1027"><stop style="stop-color:#acf0b5;stop-opacity:1" offset="0" id="stop1023"/><stop style="stop-color:#6ddb77;stop-opacity:1" offset="0.48882881" id="stop1031"/><stop style="stop-color:#71bd6e;stop-opacity:1" offset="1" id="stop1025"/></linearGradient><linearGradient id="linearGradient1019"><stop style="stop-color:#4dd966;stop-opacity:1" offset="0" id="stop1015"/><stop style="stop-color:#67a35a;stop-opacity:1" offset="1" id="stop1017"/></linearGradient><linearGradient id="linearGradient937"><stop style="stop-color:#327a2f;stop-opacity:0.99607843" offset="0" id="stop933"/><stop style="stop-color:#6ec461;stop-opacity:1" offset="1" id="stop935"/></linearGradient><linearGradient xlink:href="#linearGradient937" id="linearGradient939" x1="52" y1="52" x2="12" y2="12" gradientUnits="userSpaceOnUse"/><linearGradient xlink:href="#linearGradient1019" id="linearGradient1021" x1="47" y1="28" x2="52" y2="32" gradientUnits="userSpaceOnUse"/><linearGradient xlink:href="#linearGradient1027" id="linearGradient1029" x1="16" y1="20" x2="16" y2="48" gradientUnits="userSpaceOnUse"/><linearGradient xlink:href="#linearGradient1153" id="linearGradient1155" x1="31.894281" y1="36.04538" x2="31.789062" y2="8" gradientUnits="userSpaceOnUse"/><linearGradient xlink:href="#linearGradient866" id="linearGradient868" x1="32" y1="12" x2="36" y2="36" gradientUnits="userSpaceOnUse"/></defs><metadata id="metadata5"><rdf:RDF><cc:Work rdf:about=""><dc:format>image/svg+xml</dc:format><dc:type rdf:resource="http://purl.org/dc/dcmitype/StillImage"/><dc:title/></cc:Work></rdf:RDF></metadata><g id="layer1"><circle style="fill:url(#linearGradient1155);fill-opacity:1;stroke:none;stroke-width:4;stroke-linecap:round;stroke-linejoin:round;stroke-opacity:1;paint-order:markers fill stroke" id="path943" cx="32" cy="32" r="0"/><path id="path860" style="fill:url(#linearGradient868);stroke-width:4;stroke-linecap:round;stroke-linejoin:round;paint-order:markers fill stroke" d="M 60,32 A 28,28 0 0 1 32,60 28,28 0 0 1 4,32 28,28 0 0 1 32,4 28,28 0 0 1 60,32 Z"/><path id="path1011-9" style="fill:#3e7aaa;fill-opacity:1;stroke:none;stroke-width:4;stroke-linecap:round;stroke-linejoin:round;stroke-opacity:1;paint-order:markers fill stroke" d="M 53.763672,12.427734 C 49.054611,16.14696 44.305463,19.820725 39.621401,23.568301 38.182129,25.255338 36.839475,27.029378 35.4375,28.75 c -0.05365,0.583283 -0.505219,1.23349 -0.296464,1.772643 0.408707,0.683062 0.831528,1.352107 1.581639,1.69612 1.224866,0.76558 2.352388,1.833715 3.865319,1.938331 l 8.060444,1.612437 2.072265,4.142578 c -0.820755,1.283939 -1.508315,2.681964 -2.41341,3.893662 -1.891146,1.616715 -3.873993,3.146746 -5.707738,4.81772 -0.860057,1.122417 -1.191229,2.54884 -1.816163,3.806407 -0.520214,1.296906 -1.173163,2.572833 -1.612155,3.882575 12.50765,0.967714 28.094663,-34.638182 14.592435,-43.884739 z"/><path style="fill:url(#linearGradient1021);fill-opacity:1;stroke:none;stroke-width:4;stroke-linecap:round;stroke-linejoin:round;stroke-opacity:1;paint-order:markers fill stroke" d="m 55,14 -14,11 -4,5 3,2 10,2 3,6 -3,5 -6,5 -3,7 C 60.208952,55.326736 65.04263,26.553287 55,14 Z" id="path1011"/><path id="path1013-2" style="fill:#3e7aaa;fill-opacity:1;stroke:none;stroke-width:4;stroke-linecap:round;stroke-linejoin:round;stroke-opacity:1;paint-order:markers fill stroke" d="M 24,57 C 23.97452,54.269092 24.05075,51.528502 23.96227,48.803591 23.597172,47.266161 22.828313,45.847088 22.297582,44.35821 21.8119,42.663253 20.450438,41.476036 19.438236,40.095287 19.068359,39.544057 18.453857,39.041956 18.23452,38.460493 l 1.372903,-4.80229 c 0.999157,-0.305474 2.096641,-0.411407 3.033609,-0.843084 0.519613,-0.474289 1.316426,-0.771722 1.303801,-1.585581 C 24.073632,29.132774 23.963174,27.007662 24,24.9 c 0.02085,-1.354787 -0.129249,-2.729044 0.314819,-4.035629 l 2.6344,-11.4151522 C 26.632318,8.6100689 26.660195,7.5677297 25.848377,7.0202521 12.364961,7.3691437 6.5796854,54.371967 24,57 Z"/><path style="fill:url(#linearGradient1029);fill-opacity:1;stroke:none;stroke-width:4;stroke-linecap:round;stroke-linejoin:round;stroke-opacity:1;paint-order:markers fill stroke" d="m 21,5 4,4 -3,13 v 9 l -4,1 -2,7 4,5 2,5 v 9 C -1.0712695,53.905315 2.0971131,11.029602 21,5 Z" id="path1013"/><path id="path915" style="fill:url(#linearGradient939);fill-opacity:1;stroke:none;stroke-width:4;stroke-linecap:round;stroke-linejoin:round;stroke-opacity:1;paint-order:markers fill stroke" d="M 32,0 A 32,32 0 0 0 0,32 32,32 0 0 0 32,64 32,32 0 0 0 64,32 32,32 0 0 0 32,0 Z M 31.789062,8 A 24,24 0 0 1 32,8 24,24 0 0 1 56,32 24,24 0 0 1 32,56 24,24 0 0 1 8,32 24,24 0 0 1 31.789062,8 Z"/><path id="path941" style="fill:#ddefbe;fill-opacity:1;stroke:none;stroke-width:4;stroke-linecap:round;stroke-linejoin:round;stroke-opacity:1;paint-order:markers fill stroke" d="M 32,4 A 28,28 0 0 0 4,32 28,28 0 0 0 32,60 28,28 0 0 0 60,32 28,28 0 0 0 32,4 Z M 31.789062,8 A 24,24 0 0 1 32,8 24,24 0 0 1 56,32 24,24 0 0 1 32,56 24,24 0 0 1 8,32 24,24 0 0 1 31.789062,8 Z"/></g></svg>